<?xml version="1.0" encoding="utf-8"?>
<!-- Generator: Adobe Illustrator 23.1.1, SVG Export Plug-In . SVG Version: 6.00 Build 0)  -->
<svg version="1.1" id="Calque_1" xmlns="http://www.w3.org/2000/svg" xmlns:xlink="http://www.w3.org/1999/xlink" x="0px" y="0px"
	 viewBox="0 0 1481.5 380.3" style="enable-background:new 0 0 1481.5 380.3;" xml:space="preserve">
<style type="text/css">
	.st0{fill:#8B6A1B;stroke:#8B6A1B;stroke-width:0.25;stroke-linecap:round;stroke-linejoin:round;}
	.st1{fill:#8B6A1B;}
	.st2{font-family:'Boogaloo-Regular';}
	.st3{font-size:450px;}
</style>
<title>logo_1</title>
<g>
	<g id="V2">
		<path class="st0" d="M90.8,246.3l69.8,29.8c0.5,0.2,0.9,0.6,1.3,1l55.8,72.5V147.7h-27.1L90.8,246.3z"/>
		<path class="st0" d="M95.2,78.6l14.5,102.8c0.1,0.5,0,1-0.1,1.4L92.3,236l92.1-91.1L95.2,78.6z"/>
		<path class="st0" d="M329.4,0.1H109.9L0.1,190.2l109.8,190.1h219.5l109.8-190.1L329.4,0.1z M348.9,69c1.4-1,3.4-0.7,4.4,0.7
			c0.5,0.7,0.7,1.5,0.6,2.3l-15.4,109.6l20.8,64.2L252.8,140.3L348.9,69z M284.4,281.6l-61,79.2c-0.1,0.1-0.2,0.2-0.2,0.3l0,0
			c-0.1,0.1-0.2,0.2-0.3,0.3l-0.1,0.1c-0.1,0.1-0.2,0.1-0.3,0.2l-0.1,0.1c-0.1,0.1-0.3,0.1-0.4,0.2l0,0l0,0l-0.4,0.1h-0.1
			c-0.1,0-0.3,0-0.4,0l0,0c-0.1,0-0.3,0-0.4,0h-0.1c-0.1,0-0.3,0-0.4-0.1l0,0l0,0c-0.1,0-0.3-0.1-0.4-0.2l-0.1-0.1
			c-0.1-0.1-0.2-0.1-0.3-0.2l-0.1-0.1c-0.1-0.1-0.2-0.2-0.3-0.3l0,0l-0.2-0.3l-61-79.2L84,250.3c-1.5-0.6-2.3-2.3-1.8-3.9l21-64.8
			L87.8,72c-0.2-1.7,1-3.3,2.7-3.6c0.8-0.1,1.6,0.1,2.3,0.6l97.4,72.4h54.5l110.9,109.8L284.4,281.6z"/>
		<text transform="matrix(1 0 0 1 488.53 339.64)" class="st1 st2 st3">Okami</text>
	</g>
</g>
</svg>
